REM MD5 8d52b8aa6c794daba267ee9cad61eb0c
FILE "All-Star Mahjong - Karei naru Shoubushi kara no Chousen (Japan).bin" BINARY
  TRACK 01 MODE2/2352
    INDEX 01 00:00:00
  TRACK 02 AUDIO
    INDEX 00 07:12:32
    INDEX 01 07:14:32
  TRACK 03 AUDIO
    INDEX 00 09:22:64
    INDEX 01 09:24:64
  TRACK 04 AUDIO
    INDEX 00 11:46:30
    INDEX 01 11:48:30
  TRACK 05 AUDIO
    INDEX 00 12:53:40
    INDEX 01 12:55:40
  TRACK 06 AUDIO
    INDEX 00 15:04:64
    INDEX 01 15:06:64
REM LEADOUT 18:21:23
